<svg width="20.000000" height="20.000000" viewBox="0 0 20 20" fill="none" xmlns="http://www.w3.org/2000/svg" xmlns:xlink="http://www.w3.org/1999/xlink">
	<desc>
			Created with Pixso.
	</desc>
	<defs/>
	<path id="Vector (Stroke)" d="M0 10C0 4.47705 4.47705 0 10 0C15.5229 0 20 4.47705 20 10C20 15.5229 15.5229 20 10 20C4.47705 20 0 15.5229 0 10ZM10 1.33325C5.21338 1.33325 1.3335 5.21362 1.3335 10C1.3335 14.7864 5.21338 18.6667 10 18.6667C14.7866 18.6667 18.6665 14.7864 18.6665 10C18.6665 5.21362 14.7866 1.33325 10 1.33325ZM15.187 7.08301L9.4292 14.281L4.90674 10.5122L5.76025 9.48779L9.23779 12.3857L14.146 6.25024L15.187 7.08301Z" fill="#97EAB9" fill-opacity="1.000000" fill-rule="evenodd"/>
</svg>
