<svg width="30.000000" height="30.000000" viewBox="0 0 30 30" fill="none" xmlns="http://www.w3.org/2000/svg" xmlns:xlink="http://www.w3.org/1999/xlink">
	<desc>
			Created with Pixso.
	</desc>
	<defs/>
	<path id="Vector (Stroke)" d="M0 15C0 6.71582 6.71582 0 15 0C23.2842 0 30 6.71582 30 15C30 23.2842 23.2842 30 15 30C6.71582 30 0 23.2842 0 15ZM15 2C7.82031 2 2 7.82031 2 15C2 22.1797 7.82031 28 15 28C22.1797 28 28 22.1797 28 15C28 7.82031 22.1797 2 15 2ZM10 12L8 12L8 10L10 10L10 12ZM22 12L20 12L20 10L22 10L22 12ZM7.6001 20.2L8.2002 19.3999C11.6001 14.8667 18.3999 14.8667 21.7998 19.3999L22.3999 20.2L20.7998 21.3999L20.2002 20.6001C17.6001 17.1333 12.3999 17.1333 9.7998 20.6001L9.2002 21.3999L7.6001 20.2Z" fill="#FFFFFF" fill-opacity="1.000000" fill-rule="evenodd"/>
</svg>
