<svg width="20.000000" height="20.000000" viewBox="0 0 20 20" fill="none" xmlns="http://www.w3.org/2000/svg" xmlns:xlink="http://www.w3.org/1999/xlink">
	<desc>
			Created with Pixso.
	</desc>
	<defs/>
	<path id="Vector (Stroke)" d="M0 10C0 4.47705 4.47705 0 10 0C15.5229 0 20 4.47705 20 10C20 15.5229 15.5229 20 10 20C4.47705 20 0 15.5229 0 10ZM10 1.33325C5.21338 1.33325 1.3335 5.21362 1.3335 10C1.3335 14.7864 5.21338 18.6667 10 18.6667C14.7866 18.6667 18.6665 14.7864 18.6665 10C18.6665 5.21362 14.7866 1.33325 10 1.33325ZM6.6665 8L5.3335 8L5.3335 6.66675L6.6665 6.66675L6.6665 8ZM14.6665 8L13.3335 8L13.3335 6.66675L14.6665 6.66675L14.6665 8ZM5.06689 13.4666L5.4668 12.9333C7.7334 9.91113 12.2666 9.91113 14.5332 12.9333L14.9331 13.4666L13.8667 14.2666L13.4668 13.7334C11.7334 11.4221 8.2666 11.4221 6.5332 13.7334L6.1333 14.2666L5.06689 13.4666Z" fill="#FFD280" fill-opacity="1.000000" fill-rule="evenodd"/>
</svg>
