<svg width="18.471191" height="21.800049" viewBox="0 0 18.4712 21.8" fill="none" xmlns="http://www.w3.org/2000/svg" xmlns:xlink="http://www.w3.org/1999/xlink">
	<desc>
			Created with Pixso.
	</desc>
	<defs/>
	<path id="Vector (Stroke)" d="M3.80469 19.319L3.80469 0L5.13818 0L5.13818 19.319L8 16.1995L8.94287 17.2272L4.94287 21.5872C4.81787 21.7234 4.64844 21.8 4.47119 21.8C4.29443 21.8 4.125 21.7234 4 21.5872L0 17.2272L0.942871 16.1995L3.80469 19.319ZM15.1382 1.45337C14.0337 1.45337 13.1382 2.42932 13.1382 3.6333L13.1382 5.81335L17.1382 5.81335L17.1382 3.6333C17.1382 2.42932 16.2427 1.45337 15.1382 1.45337ZM17.1382 7.26672L17.1382 10.1733L18.4712 10.1733L18.4712 3.6333C18.4712 1.62671 16.979 0 15.1382 0C13.2974 0 11.8047 1.62671 11.8047 3.6333L11.8047 10.1733L13.1382 10.1733L13.1382 7.26672L17.1382 7.26672ZM11.8047 11.6267L15.8047 11.6267C17.2773 11.6267 18.4712 12.928 18.4712 14.5333C18.4712 15.4015 18.1221 16.1808 17.5688 16.7134C18.1221 17.246 18.4712 18.0251 18.4712 18.8933C18.4712 20.4987 17.2773 21.8 15.8047 21.8L11.8047 21.8L11.8047 11.6267ZM15.8047 15.9867C16.541 15.9867 17.1382 15.3359 17.1382 14.5333C17.1382 13.7307 16.541 13.08 15.8047 13.08L13.1382 13.08L13.1382 15.9867L15.8047 15.9867ZM13.1382 17.4399L15.8047 17.4399C16.541 17.4399 17.1382 18.0907 17.1382 18.8933C17.1382 19.696 16.541 20.3467 15.8047 20.3467L13.1382 20.3467L13.1382 17.4399Z" fill="#8C8C8C" fill-opacity="1.000000" fill-rule="evenodd"/>
</svg>
