<svg width="20.000000" height="20.000000" viewBox="0 0 20 20" fill="none" xmlns="http://www.w3.org/2000/svg" xmlns:xlink="http://www.w3.org/1999/xlink">
	<desc>
			Created with Pixso.
	</desc>
	<defs/>
	<path id="Vector (Stroke)" d="M0 10C0 4.47705 4.47705 0 10 0C15.5229 0 20 4.47705 20 10C20 15.5229 15.5229 20 10 20C4.47705 20 0 15.5229 0 10ZM10 1.33325C5.21338 1.33325 1.3335 5.21362 1.3335 10C1.3335 14.7866 5.21338 18.6665 10 18.6665C14.7866 18.6665 18.6665 14.7866 18.6665 10C18.6665 5.21362 14.7866 1.33325 10 1.33325ZM9.05713 10L5.52881 6.47144L6.47119 5.52856L10 9.05713L13.5288 5.52856L14.4712 6.47144L10.9429 10L14.4712 13.5288L13.5288 14.4712L10 10.9429L6.47119 14.4712L5.52881 13.5288L9.05713 10Z" fill="#FF868E" fill-opacity="1.000000" fill-rule="evenodd"/>
</svg>
