<svg width="20.000000" height="17.333496" viewBox="0 0 20 17.3335" fill="none" xmlns="http://www.w3.org/2000/svg" xmlns:xlink="http://www.w3.org/1999/xlink">
	<desc>
			Created with Pixso.
	</desc>
	<defs/>
	<path id="Vector 348 (Stroke)" d="M5.38086 1.33325C3.14551 1.33325 1.3335 3.14551 1.3335 5.38062C1.3335 6.4541 1.75977 7.48364 2.51855 8.24268L10 15.7239L17.4814 8.24268C18.2402 7.48364 18.6665 6.4541 18.6665 5.38062C18.6665 3.14551 16.8545 1.33325 14.6191 1.33325C13.5459 1.33325 12.5166 1.75977 11.7573 2.5188L10.4712 3.80469C10.2109 4.06519 9.78906 4.06519 9.52881 3.80469L8.24268 2.5188C7.4834 1.75977 6.4541 1.33325 5.38086 1.33325ZM0 5.38062C0 2.40894 2.40918 0 5.38086 0C6.80762 0 8.17627 0.566895 9.18555 1.57593L10 2.39062L10.8145 1.57593C11.8237 0.566895 13.1924 0 14.6191 0C17.5908 0 20 2.40894 20 5.38062C20 6.80786 19.4331 8.17627 18.4238 9.18555L10.4712 17.1382C10.2109 17.3984 9.78906 17.3984 9.52881 17.1382L1.57617 9.18555C0.566895 8.17627 0 6.80786 0 5.38062Z" fill="#FF868E" fill-opacity="1.000000" fill-rule="evenodd"/>
</svg>
