<svg width="30.000000" height="26.000000" viewBox="0 0 30 26" fill="none" xmlns="http://www.w3.org/2000/svg" xmlns:xlink="http://www.w3.org/1999/xlink">
	<desc>
			Created with Pixso.
	</desc>
	<defs/>
	<path id="Vector 348 (Stroke)" d="M8.07129 2C4.71777 2 2 4.71814 2 8.07104C2 9.68121 2.63965 11.2254 3.77832 12.364L15 23.5858L26.2217 12.364C27.3604 11.2254 28 9.68121 28 8.07104C28 4.71814 25.2822 2 21.9287 2C20.3184 2 18.7744 2.63965 17.6357 3.7782L15.707 5.70709C15.3164 6.09766 14.6836 6.09766 14.293 5.70709L12.3643 3.7782C11.2256 2.63965 9.68164 2 8.07129 2ZM0 8.07104C0 3.61353 3.61328 0 8.07129 0C10.2119 0 12.2646 0.850342 13.7783 2.36395L15 3.58582L16.2217 2.36395C17.7354 0.850342 19.7881 0 21.9287 0C26.3867 0 30 3.61353 30 8.07104C30 10.2117 29.1494 12.2645 27.6357 13.7782L15.707 25.7071C15.3164 26.0977 14.6836 26.0977 14.293 25.7071L2.36426 13.7782C0.850586 12.2645 0 10.2117 0 8.07104Z" fill="#FF868E" fill-opacity="1.000000" fill-rule="evenodd"/>
</svg>
