<svg width="30.000000" height="26.000000" viewBox="0 0 30 26" fill="none" xmlns="http://www.w3.org/2000/svg" xmlns:xlink="http://www.w3.org/1999/xlink">
	<desc>
			Created with Pixso.
	</desc>
	<defs/>
	<path id="Vector 348 (Stroke)" d="M8.07129 2C4.71826 2 2 4.71802 2 8.07104C2 9.68115 2.63965 11.2253 3.77832 12.364L15 23.5857L26.2217 12.364C27.3604 11.2253 28 9.68115 28 8.07104C28 4.71802 25.2817 2 21.9287 2C20.3188 2 18.7744 2.63965 17.6362 3.77808L15.707 5.70703C15.3164 6.09766 14.6836 6.09766 14.293 5.70703L12.3638 3.77808C11.2256 2.63965 9.68115 2 8.07129 2ZM0 8.07104C0 3.61353 3.61377 0 8.07129 0C10.2114 0 12.2646 0.850342 13.7783 2.36401L15 3.58569L16.2217 2.36401C17.7354 0.850342 19.7886 0 21.9287 0C26.3862 0 30 3.61353 30 8.07104C30 10.2117 29.1494 12.2646 27.6362 13.7781L15.707 25.707C15.3164 26.0977 14.6836 26.0977 14.293 25.707L2.36377 13.7781C0.850098 12.2646 0 10.2117 0 8.07104Z" fill="#FFFFFF" fill-opacity="1.000000" fill-rule="evenodd"/>
</svg>
