<svg width="30.000000" height="30.000000" viewBox="0 0 30 30" fill="none" xmlns="http://www.w3.org/2000/svg" xmlns:xlink="http://www.w3.org/1999/xlink">
	<desc>
			Created with Pixso.
	</desc>
	<defs/>
	<path id="Vector (Stroke)" d="M0 15C0 6.7157 6.71582 0 15 0C23.2842 0 30 6.7157 30 15C30 23.2843 23.2842 30 15 30C6.71582 30 0 23.2843 0 15ZM15 2C7.82031 2 2 7.82031 2 15C2 22.1797 7.82031 28 15 28C22.1797 28 28 22.1797 28 15C28 7.82031 22.1797 2 15 2ZM10 12L8 12L8 10L10 10L10 12ZM22 12L20 12L20 10L22 10L22 12ZM9.2002 16.6L9.7998 17.4C12.4004 20.8666 17.5996 20.8666 20.2002 17.4L20.7998 16.6L22.4004 17.8L21.7998 18.6C18.4004 23.1334 11.5996 23.1334 8.2002 18.6L7.59961 17.8L9.2002 16.6Z" fill="#FF868E" fill-opacity="1.000000" fill-rule="evenodd"/>
</svg>
