<svg width="20.000000" height="20.000000" viewBox="0 0 20 20" fill="none" xmlns="http://www.w3.org/2000/svg" xmlns:xlink="http://www.w3.org/1999/xlink">
	<desc>
			Created with Pixso.
	</desc>
	<defs/>
	<path id="Vector (Stroke)" d="M0 10C0 4.47705 4.47705 0 10 0C15.5229 0 20 4.47705 20 10C20 15.5229 15.5229 20 10 20C4.47705 20 0 15.5229 0 10ZM10 1.33325C5.21338 1.33325 1.3335 5.21362 1.3335 10C1.3335 14.7864 5.21338 18.6667 10 18.6667C14.7866 18.6667 18.6665 14.7864 18.6665 10C18.6665 5.21362 14.7866 1.33325 10 1.33325ZM6.6665 8L5.3335 8L5.3335 6.66675L6.6665 6.66675L6.6665 8ZM14.6665 8L13.3335 8L13.3335 6.66675L14.6665 6.66675L14.6665 8ZM6.1333 11.0667L6.5332 11.6001C8.2666 13.9111 11.7334 13.9111 13.4668 11.6001L13.8667 11.0667L14.9331 11.8667L14.5332 12.3999C12.2666 15.4221 7.7334 15.4221 5.4668 12.3999L5.06689 11.8667L6.1333 11.0667Z" fill="#97EAB9" fill-opacity="1.000000" fill-rule="evenodd"/>
</svg>
