<svg width="106.161133" height="24.000000" viewBox="0 0 106.161 24" fill="none" xmlns="http://www.w3.org/2000/svg" xmlns:xlink="http://www.w3.org/1999/xlink">
	<desc>
			Created with Pixso.
	</desc>
	<defs/>
	<path id="Rectangle 11" d="M7.84082 12.4576C7.84082 9.90784 9.9082 7.8407 12.458 7.8407L19.3828 7.8407C21.9326 7.8407 24 9.90784 24 12.4576C24 15.0076 21.9326 17.0746 19.3828 17.0746L12.458 17.0746C9.9082 17.0746 7.84082 15.0076 7.84082 12.4576Z" fill="#FF868E" fill-opacity="1.000000" fill-rule="nonzero"/>
	<path id="Rectangle 12" d="M12.458 24C9.9082 24 7.84082 21.9329 7.84082 19.3831L7.84082 12.4576C7.84082 9.90771 9.9082 7.84058 12.458 7.84058C15.0078 7.84058 17.0752 9.90771 17.0752 12.4576L17.0752 19.3831C17.0752 21.9329 15.0078 24 12.458 24Z" fill="#FF868E" fill-opacity="1.000000" fill-rule="nonzero"/>
	<path id="Ellipse 3" d="M11.543 2.88562C11.543 4.47925 10.251 5.77124 8.65723 5.77124C7.06348 5.77124 5.77148 4.47925 5.77148 2.88562C5.77148 1.29187 7.06348 0 8.65723 0C10.251 0 11.543 1.29187 11.543 2.88562Z" fill="#FF868E" fill-opacity="1.000000" fill-rule="nonzero"/>
	<path id="Ellipse 6" d="M5.77148 16.7366C5.77148 18.3302 4.47949 19.6222 2.88574 19.6222C1.29199 19.6222 0 18.3302 0 16.7366C0 15.1428 1.29199 13.851 2.88574 13.851C4.47949 13.851 5.77148 15.1428 5.77148 16.7366Z" fill="#FF868E" fill-opacity="1.000000" fill-rule="nonzero"/>
	<path id="Ellipse 5" d="M19.6221 2.88562C19.6221 4.47925 18.3301 5.77124 16.7363 5.77124C15.1426 5.77124 13.8506 4.47925 13.8506 2.88562C13.8506 1.29187 15.1426 0 16.7363 0C18.3301 0 19.6221 1.29187 19.6221 2.88562Z" fill="#FF868E" fill-opacity="1.000000" fill-rule="nonzero"/>
	<path id="Ellipse 4" d="M5.77148 8.65686C5.77148 10.2505 4.47949 11.5425 2.88574 11.5425C1.29199 11.5425 0 10.2505 0 8.65686C0 7.06311 1.29199 5.77124 2.88574 5.77124C4.47949 5.77124 5.77148 7.06311 5.77148 8.65686Z" fill="#FF868E" fill-opacity="1.000000" fill-rule="nonzero"/>
	<path id="PetsPaw" d="M31.8945 18.7999L31.8945 6.43518L37.6934 6.43518Q39.1523 6.43518 40.0742 6.99194C40.7012 7.36316 41.168 7.86877 41.4756 8.50879Q41.9365 9.46875 41.9365 10.6976Q41.9365 11.9036 41.4346 12.8406L41.4336 12.8412Q41.416 12.8735 41.3984 12.9056Q41.1777 13.3149 40.873 13.6475Q40.4629 14.0948 39.9014 14.4032Q38.9414 14.9216 37.6162 14.9216L34.4863 14.9216L34.4863 18.7999L31.8945 18.7999ZM69.7881 18.7999L69.7881 6.43518L75.5869 6.43518C76.5596 6.43518 77.3535 6.62073 77.9678 6.99194Q78.5107 7.31372 78.8945 7.77014L78.8945 7.77014Q79.1748 8.10352 79.3691 8.50879C79.6768 9.1488 79.8301 9.87842 79.8301 10.6976C79.8301 11.5295 79.6504 12.2656 79.292 12.9056C78.9463 13.5455 78.4473 14.0448 77.7949 14.4032C77.1543 14.7488 76.3936 14.9216 75.5098 14.9216L72.3799 14.9216L72.3799 18.7999L69.7881 18.7999ZM57.3857 18.9919C56.3359 18.9919 55.5547 18.7168 55.043 18.1664C54.5439 17.616 54.2939 16.8672 54.2939 15.9199L54.2939 11.6959L53.0078 11.6959L53.0078 9.69922L54.2939 9.69922L54.2939 7.74072L56.8857 6.97278L56.8857 9.69922L59.1904 9.69922L59.0361 11.6959L56.8857 11.6959L56.8857 15.7472C56.8857 16.2463 57.001 16.592 57.2314 16.7839C57.4619 16.9631 57.8203 17.0527 58.3066 17.0527C58.665 17.0527 59.0361 16.9888 59.4209 16.8608L59.4209 18.6464C59.1387 18.7616 58.832 18.8447 58.499 18.896C58.166 18.96 57.7949 18.9919 57.3857 18.9919ZM34.4863 12.8672L37.0781 12.8672Q38.1543 12.8672 38.7109 12.3296L38.7109 12.3295Q38.7305 12.3107 38.749 12.2911Q38.8555 12.1807 38.9434 12.0563Q39.3252 11.5106 39.3252 10.6976Q39.3252 9.62305 38.7881 9.06628L38.7871 9.06555Q38.75 9.02588 38.7109 8.98901Q38.1758 8.48962 37.1748 8.48962L34.4863 8.48962L34.4863 12.8672ZM72.3799 12.8672L74.9727 12.8672C75.7148 12.8672 76.2715 12.6752 76.6426 12.2911C77.0264 11.8944 77.2188 11.3632 77.2188 10.6976C77.2188 9.98083 77.0391 9.43677 76.6807 9.06555C76.3223 8.68164 75.7852 8.48962 75.0684 8.48962L72.3799 8.48962L72.3799 12.8672ZM48.1123 18.9919C46.5371 18.9919 45.2891 18.6016 44.3682 17.8208Q44.1748 17.6545 44.0088 17.4648L44.0088 17.4647Q42.9854 16.2953 42.9854 14.2303Q42.9854 12.2468 43.9482 11.0175Q44.0391 10.9022 44.1377 10.7936Q44.2686 10.6499 44.4131 10.5223Q45.5664 9.5072 47.6123 9.5072Q49.6035 9.5072 50.707 10.4967Q50.7744 10.5569 50.8379 10.6207C51.5938 11.3503 51.9707 12.3104 51.9707 13.5007L51.9707 15.152L45.3857 15.152C45.5264 15.8816 45.8594 16.3807 46.3838 16.6495Q47.1904 17.0527 48.6494 17.0527Q49.3789 17.0527 50.1279 16.9183C50.6396 16.8287 51.0752 16.7136 51.4336 16.5728L51.4336 18.416C51.0107 18.608 50.5186 18.7488 49.9551 18.8384C49.3916 18.9408 48.7773 18.9919 48.1123 18.9919ZM63.957 18.9919C63.2783 18.9919 62.6328 18.9408 62.0176 18.8384C61.4033 18.7488 60.9111 18.6335 60.54 18.4928L60.54 16.3424C60.9873 16.5216 61.4932 16.6624 62.0566 16.7648C62.6191 16.8544 63.1377 16.8992 63.6113 16.8992C64.252 16.8992 64.6992 16.8608 64.9561 16.7839C65.2246 16.7072 65.3584 16.5344 65.3584 16.2656C65.3584 15.9584 65.1543 15.7344 64.7441 15.5936C64.3477 15.4528 63.752 15.2544 62.959 14.9984C62.127 14.7168 61.4863 14.3776 61.0391 13.9808C60.5908 13.584 60.3672 12.9952 60.3672 12.2144C60.3672 11.344 60.6807 10.6783 61.3076 10.2175C61.9473 9.74402 62.9717 9.5072 64.3799 9.5072C64.9424 9.5072 65.4736 9.552 65.9736 9.6416C66.4727 9.71838 66.8945 9.81433 67.2402 9.92957L67.2402 12.0608C66.8945 11.8944 66.498 11.7728 66.0498 11.6959Q65.3779 11.5615 64.8018 11.5615C64.252 11.5615 63.8096 11.6 63.4775 11.6768C63.1572 11.7535 62.9971 11.9199 62.9971 12.176C62.9971 12.4575 63.1699 12.656 63.5156 12.7712C63.874 12.8864 64.4248 13.0592 65.167 13.2896C65.8965 13.5072 66.4658 13.744 66.876 14C67.2852 14.256 67.5732 14.5632 67.7393 14.9216C67.9062 15.2672 67.9893 15.7024 67.9893 16.2272Q67.9893 17.1115 67.5771 17.7129Q66.6992 18.9919 63.957 18.9919ZM83.749 18.9919C83.1729 18.9919 82.6357 18.8895 82.1367 18.6848C81.6494 18.4672 81.2529 18.1536 80.9463 17.744C80.6514 17.3215 80.5039 16.7968 80.5039 16.1696C80.5039 15.2736 80.8184 14.5568 81.4453 14.0192C82.085 13.4816 83.0254 13.2128 84.2676 13.2128L86.9551 13.2128L86.9551 12.9631C86.9551 12.4 86.7959 12.0032 86.4756 11.7728C86.168 11.5424 85.541 11.4271 84.5938 11.4271C83.5566 11.4271 82.5586 11.5872 81.5986 11.9072L81.5986 10.0831C82.0215 9.91675 82.5332 9.78235 83.1348 9.67993C83.749 9.56482 84.415 9.5072 85.1318 9.5072C86.501 9.5072 87.5566 9.78882 88.2998 10.3519C89.0547 10.9023 89.4326 11.792 89.4326 13.0208L89.4326 18.7999L87.1855 18.7999L87.0518 17.9744C86.6934 18.2944 86.252 18.5439 85.7266 18.7231C85.2021 18.9023 84.543 18.9919 83.749 18.9919ZM93.0479 18.7999L90.6484 9.69922L93.2402 9.69922L94.6221 15.6128L96.1396 10.8704L96.1396 9.69922L98.1172 9.69922L99.8447 15.6128L101.188 9.69922L103.762 9.69922L101.381 18.7999L99 18.7999L97.2529 13.4816L95.4668 18.7999L93.0479 18.7999ZM45.3857 13.5583L49.7051 13.5583L49.7051 13.0592C49.7051 12.5344 49.5518 12.1248 49.2451 11.8303C48.9375 11.5232 48.4189 11.3696 47.6895 11.3696C46.832 11.3696 46.2305 11.5424 45.8848 11.8879Q45.3857 12.4064 45.3857 13.5583ZM84.46 17.2832C85.0352 17.2832 85.5352 17.1871 85.957 16.9952C86.3799 16.8032 86.7119 16.5599 86.9551 16.2656L86.9551 14.8256L84.3252 14.8256C83.3135 14.8256 82.8086 15.2416 82.8086 16.0736C82.8086 16.88 83.3584 17.2832 84.46 17.2832Z" fill="#1D1D1D" fill-opacity="1.000000" fill-rule="evenodd"/>
</svg>
