<svg width="200.000000" height="200.000000" viewBox="0 0 200 200" fill="none" xmlns="http://www.w3.org/2000/svg" xmlns:xlink="http://www.w3.org/1999/xlink">
	<desc>
			Created with Pixso.
	</desc>
	<defs/>
	<path id="Vector" d="M20 0C8.9541 0 0 8.95435 0 20L0 180C0 191.046 8.9541 200 20 200L180 200C187.621 200 194.247 195.737 197.623 189.465C198.528 187.784 199.199 185.958 199.594 184.031C199.86 182.729 200 181.38 200 180L200 20C200 8.95435 191.046 0 180 0L20 0ZM60 37.2388L64.6565 41.8953C64.6758 41.9141 64.6953 41.9333 64.7146 41.9526L156.095 133.333L186.667 133.333L186.667 20C186.667 16.3181 183.682 13.3333 180 13.3333L20 13.3333C16.3179 13.3333 13.3335 16.3181 13.3335 20L13.3335 83.9053L60 37.2388ZM120 60C120 48.9543 128.954 40 140 40C151.046 40 160 48.9543 160 60C160 71.0457 151.046 80 140 80C128.954 80 120 71.0457 120 60Z" fill="#F8F8F7" fill-opacity="1.000000" fill-rule="evenodd"/>
</svg>
