<svg width="20.000000" height="20.000000" viewBox="0 0 20 20" fill="none" xmlns="http://www.w3.org/2000/svg" xmlns:xlink="http://www.w3.org/1999/xlink">
	<desc>
			Created with Pixso.
	</desc>
	<defs>
		<clipPath id="clip1_1323">
			<rect id="search" width="20.000000" height="20.000000" fill="white" fill-opacity="0"/>
		</clipPath>
	</defs>
	<rect id="search" width="20.000000" height="20.000000" fill="#FFFFFF" fill-opacity="0"/>
	<g clip-path="url(#clip1_1323)">
		<path id="Vector" d="M19.3613 18.2169L14.6016 13.2662C15.8252 11.8113 16.4961 9.98071 16.4961 8.07501C16.4961 3.6225 12.873 0 8.4209 0C3.96777 0 0.345703 3.6225 0.345703 8.07501C0.345703 12.5275 3.96777 16.15 8.4209 16.15C10.0918 16.15 11.6855 15.6458 13.0469 14.6888L17.8428 19.677C18.0439 19.8852 18.3135 20 18.6025 20C18.876 20 19.1348 19.8958 19.332 19.7061C19.751 19.3035 19.7637 18.6357 19.3613 18.2169ZM8.4209 2.10651C11.7119 2.10651 14.3896 4.78394 14.3896 8.07501C14.3896 11.3661 11.7119 14.0435 8.4209 14.0435C5.12988 14.0435 2.45215 11.3661 2.45215 8.07501C2.45215 4.78394 5.12988 2.10651 8.4209 2.10651Z" fill="#FF868E" fill-opacity="1.000000" fill-rule="nonzero"/>
	</g>
</svg>
